<svg width="377" height="200" viewBox="0 0 377 200" fill="none" xmlns="http://www.w3.org/2000/svg">
<rect width="377" height="200" rx="15" fill="white"/>
<g filter="url(#filter0_ddddd_902_709)">
<path d="M56.0781 57.9844C62.6406 58.2188 69.4766 58.3359 76.5859 58.3359C79.9453 58.3359 83.1484 58.2578 86.1953 58.1016C89.2422 57.9453 90.8047 57.8672 90.8828 57.8672C92.9922 57.8672 94.9258 57.9258 96.6836 58.043C98.4805 58.1211 100.492 58.3164 102.719 58.6289C104.984 58.9414 106.996 59.3711 108.754 59.918C110.512 60.4648 112.27 61.2266 114.027 62.2031C115.824 63.1797 117.309 64.332 118.48 65.6602C119.691 66.9883 120.668 68.6289 121.41 70.582C122.152 72.5352 122.523 74.7227 122.523 77.1445C122.523 84.293 118.246 89.6641 109.691 93.2578V93.7266C116.098 94.8984 121.449 97.5547 125.746 101.695C130.082 105.836 132.25 111.129 132.25 117.574C132.25 121.012 131.625 124.117 130.375 126.891C129.164 129.625 127.602 131.891 125.688 133.688C123.773 135.484 121.371 137.047 118.48 138.375C115.59 139.703 112.777 140.719 110.043 141.422C107.309 142.125 104.164 142.691 100.609 143.121C97.0938 143.512 94.0859 143.766 91.5859 143.883C89.0859 143.961 86.293 144 83.207 144C72.6211 144 63.5391 144.117 55.9609 144.352C55.8047 143.883 55.7266 143.492 55.7266 143.18C55.7266 142.906 55.8047 142.379 55.9609 141.598C57.1328 141.48 58.0703 141.383 58.7734 141.305C59.4766 141.227 60.4336 141.09 61.6445 140.895C62.8945 140.699 63.8906 140.484 64.6328 140.25C65.4141 139.977 66.2148 139.645 67.0352 139.254C67.8555 138.863 68.4609 138.395 68.8516 137.848C69.2812 137.301 69.4961 136.676 69.4961 135.973C69.9648 123.746 70.1992 111.422 70.1992 99C70.1992 86.3438 70.0039 75.4258 69.6133 66.2461C69.5742 65.2305 69.125 64.3711 68.2656 63.668C67.4453 62.9648 66.1953 62.418 64.5156 62.0273C62.8359 61.6367 61.4883 61.3828 60.4727 61.2656C59.457 61.1094 57.9922 60.9336 56.0781 60.7383C55.9219 60.0352 55.8438 59.5469 55.8438 59.2734C55.8438 59.0391 55.9219 58.6094 56.0781 57.9844ZM82.5625 99V103.336L83.207 140.016C85.8242 140.016 88.1484 139.977 90.1797 139.898C92.2109 139.781 94.4375 139.547 96.8594 139.195C99.2812 138.805 101.391 138.297 103.188 137.672C104.984 137.047 106.781 136.188 108.578 135.094C110.375 133.961 111.84 132.633 112.973 131.109C114.105 129.586 115.023 127.711 115.727 125.484C116.43 123.219 116.781 120.68 116.781 117.867C116.781 115.133 116.332 112.691 115.434 110.543C114.535 108.355 113.266 106.539 111.625 105.094C110.023 103.609 108.051 102.379 105.707 101.402C103.402 100.426 100.883 99.7227 98.1484 99.293C95.4531 98.8633 92.5039 98.6484 89.3008 98.6484C87.0742 98.6484 84.8281 98.7656 82.5625 99ZM83.3242 62.0273L82.5625 95.4258C98.5 95.4258 106.469 89.332 106.469 77.1445C106.469 71.832 104.809 67.9258 101.488 65.4258C98.207 62.9258 93.832 61.6758 88.3633 61.6758C87.1523 61.6758 85.4727 61.793 83.3242 62.0273ZM144.086 57.8672C151.43 58.1797 160.668 58.3359 171.801 58.3359L194.477 119.742H194.77L218.383 58.3359H225.121C229.965 58.3359 236.801 58.1797 245.629 57.8672C245.785 58.4922 245.863 58.9219 245.863 59.1562C245.863 59.4297 245.785 59.918 245.629 60.6211C244.223 60.7383 243.09 60.8555 242.23 60.9727C241.371 61.0898 240.219 61.2852 238.773 61.5586C237.367 61.832 236.234 62.1641 235.375 62.5547C234.516 62.9062 233.754 63.4141 233.09 64.0781C232.426 64.7031 232.074 65.4258 232.035 66.2461C231.645 75.4258 231.449 86.3438 231.449 99C231.449 111.852 231.703 124.176 232.211 135.973C232.25 136.988 232.699 137.867 233.559 138.609C234.418 139.312 235.648 139.859 237.25 140.25C238.891 140.641 240.258 140.934 241.352 141.129C242.484 141.285 243.949 141.441 245.746 141.598C245.902 142.223 245.98 142.75 245.98 143.18C245.98 143.492 245.902 143.883 245.746 144.352C239.145 144.117 232.348 144 225.355 144C218.324 144 211.527 144.117 204.965 144.352C204.809 143.883 204.73 143.492 204.73 143.18C204.73 142.516 204.809 141.988 204.965 141.598C206.762 141.441 208.207 141.285 209.301 141.129C210.434 140.934 211.801 140.641 213.402 140.25C215.043 139.859 216.293 139.312 217.152 138.609C218.012 137.867 218.461 136.988 218.5 135.973C218.891 123.785 219.086 112.906 219.086 103.336C219.086 94.1562 218.891 83.707 218.5 71.9883H218.031L191.254 142.535H190.668L162.133 70.582H161.488C161.176 80.0742 161.02 90.9922 161.02 103.336C161.02 112.398 161.215 122.984 161.605 135.094C161.684 138.648 166 140.816 174.555 141.598C174.75 142.262 174.848 142.789 174.848 143.18C174.848 143.57 174.75 143.961 174.555 144.352C168.344 144.117 162.797 144 157.914 144C154.789 144 149.555 144.117 142.211 144.352C142.016 143.961 141.918 143.57 141.918 143.18C141.918 142.516 142.016 141.988 142.211 141.598C150.844 140.777 155.16 138.609 155.16 135.094C155.629 122.906 155.863 110.875 155.863 99C155.863 90.4453 155.746 81.3633 155.512 71.7539C155.473 70.1133 155.375 68.7461 155.219 67.6523C155.062 66.5195 154.77 65.543 154.34 64.7227C153.91 63.9023 153.461 63.2578 152.992 62.7891C152.523 62.3203 151.801 61.9102 150.824 61.5586C149.848 61.168 148.891 60.8945 147.953 60.7383C147.055 60.543 145.766 60.3281 144.086 60.0938C143.93 59.7813 143.852 59.4297 143.852 59.0391C143.852 58.5703 143.93 58.1797 144.086 57.8672ZM311.195 82.6523C309.711 75.5039 306.977 69.957 302.992 66.0117C299.047 62.0664 294.301 60.0938 288.754 60.0938C283.324 60.0938 279.105 61.3828 276.098 63.9609C273.129 66.5391 271.645 69.9766 271.645 74.2734C271.645 76.6562 271.859 78.6289 272.289 80.1914C272.719 81.7539 273.598 83.2773 274.926 84.7617C276.254 86.207 278.188 87.4961 280.727 88.6289C283.266 89.7227 286.586 90.7773 290.688 91.793C292.914 92.3398 294.848 92.8477 296.488 93.3164C298.168 93.7852 300.004 94.4297 301.996 95.25C304.027 96.0703 305.766 96.9492 307.211 97.8867C308.695 98.8242 310.16 99.9961 311.605 101.402C313.09 102.77 314.281 104.293 315.18 105.973C316.117 107.652 316.859 109.645 317.406 111.949C317.992 114.215 318.285 116.695 318.285 119.391C318.285 122.984 317.621 126.305 316.293 129.352C314.965 132.359 313.227 134.898 311.078 136.969C308.93 139.039 306.449 140.797 303.637 142.242C300.824 143.688 297.973 144.742 295.082 145.406C292.191 146.07 289.32 146.402 286.469 146.402C277.797 146.402 268.559 144.156 258.754 139.664C258.949 135.445 259.047 132.848 259.047 131.871C259.047 125.504 258.52 119.156 257.465 112.828C257.895 112.555 258.324 112.418 258.754 112.418C259.301 112.418 259.789 112.555 260.219 112.828C261.039 117.867 262.387 122.32 264.262 126.188C266.176 130.055 268.363 133.121 270.824 135.387C273.285 137.613 275.824 139.293 278.441 140.426C281.098 141.52 283.773 142.066 286.469 142.066C292.602 142.066 297.309 140.484 300.59 137.32C303.91 134.117 305.57 129.898 305.57 124.664C305.57 119.391 304.34 115.426 301.879 112.77C299.457 110.074 294.809 107.887 287.934 106.207C279.34 104.059 272.621 100.895 267.777 96.7148C262.973 92.4961 260.57 86.9297 260.57 80.0156C260.57 76.3828 261.156 73.1406 262.328 70.2891C263.539 67.3984 265.082 65.0938 266.957 63.375C268.871 61.6172 271.098 60.1719 273.637 59.0391C276.176 57.8672 278.676 57.0664 281.137 56.6367C283.637 56.168 286.176 55.9336 288.754 55.9336C296.488 55.9336 304.535 57.7305 312.895 61.3242C312.66 63.6289 312.543 66.0312 312.543 68.5312C312.543 74.3906 313.012 79.0977 313.949 82.6523C313.441 82.8477 313.012 82.9453 312.66 82.9453C312.27 82.9453 311.781 82.8477 311.195 82.6523Z" fill="url(#paint0_linear_902_709)"/>
</g>
<defs>
<filter id="filter0_ddddd_902_709" x="51.7266" y="55.9336" width="270.559" height="98.4688" filterUnits="userSpaceOnUse" color-interpolation-filters="sRGB">
<feFlood flood-opacity="0" result="BackgroundImageFix"/>
<feColorMatrix in="SourceAlpha" type="matrix" values="0 0 0 0 0 0 0 0 0 0 0 0 0 0 0 0 0 0 127 0" result="hardAlpha"/>
<feOffset dy="4"/>
<feGaussianBlur stdDeviation="2"/>
<feComposite in2="hardAlpha" operator="out"/>
<feColorMatrix type="matrix" values="0 0 0 0 0 0 0 0 0 0 0 0 0 0 0 0 0 0 1 0"/>
<feBlend mode="normal" in2="BackgroundImageFix" result="effect1_dropShadow_902_709"/>
<feColorMatrix in="SourceAlpha" type="matrix" values="0 0 0 0 0 0 0 0 0 0 0 0 0 0 0 0 0 0 127 0" result="hardAlpha"/>
<feOffset dy="4"/>
<feGaussianBlur stdDeviation="2"/>
<feComposite in2="hardAlpha" operator="out"/>
<feColorMatrix type="matrix" values="0 0 0 0 0 0 0 0 0 0 0 0 0 0 0 0 0 0 0.25 0"/>
<feBlend mode="normal" in2="effect1_dropShadow_902_709" result="effect2_dropShadow_902_709"/>
<feColorMatrix in="SourceAlpha" type="matrix" values="0 0 0 0 0 0 0 0 0 0 0 0 0 0 0 0 0 0 127 0" result="hardAlpha"/>
<feOffset dy="4"/>
<feGaussianBlur stdDeviation="2"/>
<feComposite in2="hardAlpha" operator="out"/>
<feColorMatrix type="matrix" values="0 0 0 0 0 0 0 0 0 0 0 0 0 0 0 0 0 0 0.25 0"/>
<feBlend mode="normal" in2="effect2_dropShadow_902_709" result="effect3_dropShadow_902_709"/>
<feColorMatrix in="SourceAlpha" type="matrix" values="0 0 0 0 0 0 0 0 0 0 0 0 0 0 0 0 0 0 127 0" result="hardAlpha"/>
<feOffset dy="4"/>
<feGaussianBlur stdDeviation="2"/>
<feComposite in2="hardAlpha" operator="out"/>
<feColorMatrix type="matrix" values="0 0 0 0 0 0 0 0 0 0 0 0 0 0 0 0 0 0 0.25 0"/>
<feBlend mode="normal" in2="effect3_dropShadow_902_709" result="effect4_dropShadow_902_709"/>
<feColorMatrix in="SourceAlpha" type="matrix" values="0 0 0 0 0 0 0 0 0 0 0 0 0 0 0 0 0 0 127 0" result="hardAlpha"/>
<feOffset dy="4"/>
<feGaussianBlur stdDeviation="2"/>
<feComposite in2="hardAlpha" operator="out"/>
<feColorMatrix type="matrix" values="0 0 0 0 0 0 0 0 0 0 0 0 0 0 0 0 0 0 0.25 0"/>
<feBlend mode="normal" in2="effect4_dropShadow_902_709" result="effect5_dropShadow_902_709"/>
<feBlend mode="normal" in="SourceGraphic" in2="effect5_dropShadow_902_709" result="shape"/>
</filter>
<linearGradient id="paint0_linear_902_709" x1="188.5" y1="0" x2="188.5" y2="200" gradientUnits="userSpaceOnUse">
<stop stop-color="white"/>
<stop offset="0.494792" stop-color="#6C6C6C"/>
<stop offset="1"/>
</linearGradient>
</defs>
</svg>
